Coordinates
version=1
nRows=13
nColumns=40
inDegrees=yes
endheader
time	pelvis_tilt	pelvis_list	pelvis_rotation	pelvis_tx	pelvis_ty	pelvis_tz	hip_flexion_r	hip_adduction_r	hip_rotation_r	knee_angle_r	knee_angle_r_beta	ankle_angle_r	subtalar_angle_r	mtp_angle_r	hip_flexion_l	hip_adduction_l	hip_rotation_l	knee_angle_l	knee_angle_l_beta	ankle_angle_l	subtalar_angle_l	mtp_angle_l	lumbar_extension	lumbar_bending	lumbar_rotation	arm_flex_r	arm_add_r	arm_rot_r	elbow_flex_r	pro_sup_r	wrist_flex_r	wrist_dev_r	arm_flex_l	arm_add_l	arm_rot_l	elbow_flex_l	pro_sup_l	wrist_flex_l	wrist_dev_l
1760625103.32299995	      0.04350551	     -0.05671287	      2.17601905	     -0.03596963	      0.96480999	      0.01563989	     80.00000000	     -7.00000000	      0.00000000	     80.00000000	      1.39626340	      0.00000000	      0.00000000	      0.00000000	     80.00000000	     -7.00000000	      0.00000000	     80.00000000	      1.39626340	      0.00000000	      0.00000000	      0.00000000	      2.28549538	     -1.44567486	      2.65108134	     14.36652746	    -12.31344524	     15.67201879	     50.81650540	    144.98604918	    -11.56182030	     35.00000010	      5.37701771	     -5.31094277	     -9.90258068	     83.76204248	    127.91999322	      0.50738640	      9.57408979
1760625103.35599995	      0.04552684	     -0.06531310	      2.15683494	     -0.03456875	      0.96285675	      0.01695890	     80.00000000	     -7.00000000	      0.00000000	     80.00000000	      1.39626340	      0.00000000	      0.00000000	      0.00000000	     80.00000000	     -7.00000000	      0.00000000	     80.00000000	      1.39626340	      0.00000000	      0.00000000	      0.00000000	      2.71302228	     -1.61685728	      3.00167059	     13.98906442	    -12.24319885	     15.24329952	     50.93353814	    144.99606471	    -11.31288558	     35.00000010	      4.98166421	     -5.10086473	     -9.50173526	     84.76876272	    129.43435414	      5.86784829	     17.06126984
1760625103.39000010	      0.07170486	     -0.06479148	      2.16895268	     -0.03207178	      0.96279244	      0.01849781	     80.00000000	     -7.00000000	      0.00000000	     80.00000000	      1.39626340	      0.00000000	      0.00000000	      0.00000000	     80.00000000	     -7.00000000	      0.00000000	     80.00000000	      1.39626340	      0.00000000	      0.00000000	      0.00000000	      2.96528239	     -1.65851488	      3.05458288	     13.72376390	    -12.15674548	     15.28000352	     50.79213387	    144.96149197	    -11.39435976	     35.00000010	      4.87441868	     -5.20028327	     -9.02427052	     84.50745881	    129.33642674	      8.62395608	     21.17785703
1760625103.42300010	      0.04599570	     -0.07325769	      2.17661684	     -0.03020146	      0.96275991	      0.01905708	     80.00000000	     -7.00000000	      0.00000000	     80.00000000	      1.39626340	      0.00000000	      0.00000000	      0.00000000	     80.00000000	     -7.00000000	      0.00000000	     80.00000000	      1.39626340	      0.00000000	      0.00000000	      0.00000000	      3.05995068	     -1.63837148	      3.04996607	     13.69406723	    -12.19236553	     15.37283485	     50.69723260	    144.89185372	    -11.48785461	     35.00000010	      4.99399504	     -5.28069242	     -8.73196541	     84.08628524	    129.68111254	     11.24868262	     24.85907043
1760625103.45700002	      0.05485925	     -0.07548311	      2.16039884	     -0.02743794	      0.96308917	      0.01902141	     80.00000000	     -7.00000000	      0.00000000	     80.00000000	      1.39626340	      0.00000000	      0.00000000	      0.00000000	     80.00000000	     -7.00000000	      0.00000000	     80.00000000	      1.39626340	      0.00000000	      0.00000000	      0.00000000	      3.10224967	     -1.65304760	      3.07707071	     13.90877481	    -12.19517194	     15.31848385	     50.80988756	    144.82759545	    -11.27814635	     35.00000010	      4.95692502	     -5.60397761	     -8.53521241	     83.39986081	    130.41994917	     13.19920320	     27.86990843
1760625103.49000001	      0.08803989	     -0.06629743	      2.16900402	     -0.02564056	      0.96433026	      0.01871541	     80.00000000	     -7.00000000	      0.00000000	     80.00000000	      1.39626340	      0.00000000	      0.00000000	      0.00000000	     80.00000000	     -7.00000000	      0.00000000	     80.00000000	      1.39626340	      0.00000000	      0.00000000	      0.00000000	      3.02319564	     -1.64523622	      3.04537245	     14.15921638	    -12.24662203	     15.21020015	     51.12124364	    144.86603650	    -10.91314205	     35.00000010	      4.74438232	     -5.77547357	     -8.57194382	     82.82758222	    130.41668646	     13.35975198	     27.93561011
1760625103.52300000	      0.07268031	     -0.06178892	      2.15078390	     -0.02699021	      0.96465758	      0.01792479	     80.00000000	     -7.00000000	      0.00000000	     80.00000000	      1.39626340	      0.00000000	      0.00000000	      0.00000000	     80.00000000	     -7.00000000	      0.00000000	     80.00000000	      1.39626340	      0.00000000	      0.00000000	      0.00000000	      2.93136789	     -1.64362237	      3.04990052	     14.40124733	    -12.18953380	     15.09196939	     51.26045879	    144.94585968	    -10.69032604	     35.00000010	      4.49192144	     -5.93674719	     -8.64733965	     82.37782121	    130.15137898	     12.79595076	     27.02799007
1760625103.55699992	      0.04722394	     -0.06059243	      2.12564886	     -0.02897329	      0.96476866	      0.01695845	     80.00000000	     -7.00000000	      0.00000000	     80.00000000	      1.39626340	      0.00000000	      0.00000000	      0.00000000	     80.00000000	     -7.00000000	      0.00000000	     80.00000000	      1.39626340	      0.00000000	      0.00000000	      0.00000000	      2.79059480	     -1.60130736	      3.09345091	     14.51008694	    -12.23884251	     14.68143472	     51.57031419	    145.25922657	    -10.33127714	     35.00000010	      4.25058440	     -5.85419009	     -8.78745352	     82.27456235	    130.28654806	     12.43622241	     26.09509663
1760625103.58999991	      0.06435732	     -0.06178169	      2.13055490	     -0.02904805	      0.96523702	      0.01678203	     80.00000000	     -7.00000000	      0.00000000	     80.00000000	      1.39626340	      0.00000000	      0.00000000	      0.00000000	     80.00000000	     -7.00000000	      0.00000000	     80.00000000	      1.39626340	      0.00000000	      0.00000000	      0.00000000	      2.72008758	     -1.63260784	      3.17121446	     14.67536033	    -12.26830740	     14.22977754	     52.12350280	    145.47632106	     -9.58225853	     35.00000010	      4.09720618	     -5.82489982	     -8.70236248	     82.22956349	    130.08356988	     12.12664630	     25.43014784
1760625103.62400007	      0.07003037	     -0.05409397	      2.14768578	     -0.02821291	      0.96485918	      0.01684024	     80.00000000	     -7.00000000	      0.00000000	     80.00000000	      1.39626340	      0.00000000	      0.00000000	      0.00000000	     80.00000000	     -7.00000000	      0.00000000	     80.00000000	      1.39626340	      0.00000000	      0.00000000	      0.00000000	      2.88460100	     -1.84048734	      3.34509347	     14.56658446	    -12.21297634	     13.72887588	     52.75671546	    145.59868918	     -8.82873978	     35.00000010	      3.71737408	     -5.94342612	     -8.48504173	     82.35789939	    130.05127994	     11.83243087	     24.82121788
1760625103.65700006	      0.06159887	     -0.04424504	      2.16377227	     -0.02673120	      0.96468514	      0.01717823	     80.00000000	     -7.00000000	      0.00000000	     80.00000000	      1.39626340	      0.00000000	      0.00000000	      0.00000000	     80.00000000	     -7.00000000	      0.00000000	     80.00000000	      1.39626340	      0.00000000	      0.00000000	      0.00000000	      3.05560951	     -1.99643605	      3.48064102	     14.51407925	    -12.12330149	     13.49775252	     53.02599362	    145.60617225	     -8.37124830	     35.00000010	      3.48755764	     -5.94253679	     -8.34422981	     82.67377729	    130.24288063	     11.93956947	     24.74876163
1760625103.69099998	      0.06997295	     -0.03358688	      2.18794051	     -0.02577355	      0.96479224	      0.01762664	     80.00000000	     -7.00000000	      0.00000000	     80.00000000	      1.39626340	      0.00000000	      0.00000000	      0.00000000	     80.00000000	     -7.00000000	      0.00000000	     80.00000000	      1.39626340	      0.00000000	      0.00000000	      0.00000000	      3.06274553	     -2.11948112	      3.49388323	     14.72455072	    -12.03759151	     13.34616228	     53.36448414	    145.60691758	     -7.84820364	     35.00000010	      3.58523751	     -5.95633261	     -8.28557071	     82.84947423	    130.26844179	     12.34095763	     25.21384750
1760625103.72399998	      0.07222811	     -0.01950647	      2.20157340	     -0.02676122	      0.96508945	      0.01841864	     80.00000000	     -7.00000000	      0.00000000	     80.00000000	      1.39626340	      0.00000000	      0.00000000	      0.00000000	     80.00000000	     -7.00000000	      0.00000000	     80.00000000	      1.39626340	      0.00000000	      0.00000000	      0.00000000	      2.95719067	     -2.16816105	      3.41063597	     14.76199220	    -11.96607008	     13.40927321	     53.42645693	    145.64563481	     -7.88793287	     35.00000010	      3.86899002	     -5.91924471	     -8.31866488	     82.94273943	    130.31778294	     12.67856614	     25.72220485
